<?xml version="1.0" encoding="UTF-8" standalone="no"?>
<!DOCTYPE svg PUBLIC "-//W3C//DTD SVG 1.1//EN"
 "http://www.w3.org/Graphics/SVG/1.1/DTD/svg11.dtd">
<!-- Generated by graphviz version 13.1.0 (20250701.0955)
 -->
<!-- Title: StateMachine Pages: 1 -->
<svg width="226pt" height="191pt"
 viewBox="0.00 0.00 226.00 191.00" xmlns="http://www.w3.org/2000/svg" xmlns:xlink="http://www.w3.org/1999/xlink">
<g id="graph0" class="graph" transform="scale(1 1) rotate(0) translate(4 187.2)">
<title>StateMachine</title>
<polygon fill="white" stroke="none" points="-4,4 -4,-187.2 222.45,-187.2 222.45,4 -4,4"/>
<!-- s00 -->
<g id="node1" class="node">
<title>s00</title>
<ellipse fill="none" stroke="black" cx="91.6" cy="-20.13" rx="20.13" ry="20.13"/>
<text xml:space="preserve" text-anchor="middle" x="91.6" y="-15.08" font-family="Times,serif" font-size="14.00">00</text>
</g>
<!-- s00&#45;&gt;s00 -->
<g id="edge1" class="edge">
<title>s00&#45;&gt;s00</title>
<path fill="none" stroke="black" d="M110.83,-26.64C120.77,-27.65 129.73,-25.47 129.73,-20.13 129.73,-17.04 126.74,-15.01 122.29,-14.04"/>
<polygon fill="black" stroke="black" points="122.46,-10.55 112.34,-13.67 122.2,-17.54 122.46,-10.55"/>
<text xml:space="preserve" text-anchor="middle" x="138.36" y="-15.08" font-family="Times,serif" font-size="14.00">0/0</text>
</g>
<!-- s01 -->
<g id="node2" class="node">
<title>s01</title>
<ellipse fill="none" stroke="black" cx="20.13" cy="-91.6" rx="20.13" ry="20.13"/>
<text xml:space="preserve" text-anchor="middle" x="20.13" y="-86.55" font-family="Times,serif" font-size="14.00">01</text>
</g>
<!-- s00&#45;&gt;s01 -->
<g id="edge2" class="edge">
<title>s00&#45;&gt;s01</title>
<path fill="none" stroke="black" d="M73.96,-30.05C62.87,-39.19 48.72,-52.95 37.66,-65.19"/>
<polygon fill="black" stroke="black" points="35.14,-62.75 31.23,-72.6 40.42,-67.34 35.14,-62.75"/>
<text xml:space="preserve" text-anchor="middle" x="47.18" y="-50.82" font-family="Times,serif" font-size="14.00">1/0</text>
</g>
<!-- s01&#45;&gt;s00 -->
<g id="edge3" class="edge">
<title>s01&#45;&gt;s00</title>
<path fill="none" stroke="black" d="M37.77,-81.68C48.86,-72.54 63.01,-58.78 74.07,-46.54"/>
<polygon fill="black" stroke="black" points="76.59,-48.98 80.5,-39.13 71.31,-44.39 76.59,-48.98"/>
<text xml:space="preserve" text-anchor="middle" x="64.55" y="-67.31" font-family="Times,serif" font-size="14.00">0/1</text>
</g>
<!-- s11 -->
<g id="node3" class="node">
<title>s11</title>
<ellipse fill="none" stroke="black" cx="91.6" cy="-163.07" rx="20.13" ry="20.13"/>
<text xml:space="preserve" text-anchor="middle" x="91.6" y="-158.02" font-family="Times,serif" font-size="14.00">11</text>
</g>
<!-- s01&#45;&gt;s11 -->
<g id="edge4" class="edge">
<title>s01&#45;&gt;s11</title>
<path fill="none" stroke="black" d="M34.59,-106.06C44.47,-115.94 57.77,-129.24 69.03,-140.5"/>
<polygon fill="black" stroke="black" points="66.54,-142.96 76.09,-147.56 71.49,-138.01 66.54,-142.96"/>
<text xml:space="preserve" text-anchor="middle" x="43.19" y="-126.48" font-family="Times,serif" font-size="14.00">1/0</text>
</g>
<!-- s11&#45;&gt;s00 -->
<g id="edge7" class="edge">
<title>s11&#45;&gt;s00</title>
<path fill="none" stroke="black" d="M91.6,-142.59C91.6,-118.92 91.6,-79.68 91.6,-52.01"/>
<polygon fill="black" stroke="black" points="95.1,-52.09 91.6,-42.09 88.1,-52.09 95.1,-52.09"/>
<text xml:space="preserve" text-anchor="middle" x="82.97" y="-100.5" font-family="Times,serif" font-size="14.00">0/1</text>
</g>
<!-- s10 -->
<g id="node4" class="node">
<title>s10</title>
<ellipse fill="none" stroke="black" cx="163.07" cy="-91.6" rx="20.13" ry="20.13"/>
<text xml:space="preserve" text-anchor="middle" x="163.07" y="-86.55" font-family="Times,serif" font-size="14.00">10</text>
</g>
<!-- s11&#45;&gt;s10 -->
<g id="edge8" class="edge">
<title>s11&#45;&gt;s10</title>
<path fill="none" stroke="black" d="M106.06,-148.61C115.94,-138.72 129.24,-125.43 140.5,-114.17"/>
<polygon fill="black" stroke="black" points="142.96,-116.66 147.56,-107.11 138.01,-111.71 142.96,-116.66"/>
<text xml:space="preserve" text-anchor="middle" x="114.66" y="-118.09" font-family="Times,serif" font-size="14.00">1/0</text>
</g>
<!-- s10&#45;&gt;s00 -->
<g id="edge5" class="edge">
<title>s10&#45;&gt;s00</title>
<path fill="none" stroke="black" d="M148.61,-77.14C138.72,-67.26 125.43,-53.96 114.17,-42.7"/>
<polygon fill="black" stroke="black" points="116.66,-40.24 107.11,-35.64 111.71,-45.19 116.66,-40.24"/>
<text xml:space="preserve" text-anchor="middle" x="122.76" y="-63.12" font-family="Times,serif" font-size="14.00">0/1</text>
</g>
<!-- s10&#45;&gt;s10 -->
<g id="edge6" class="edge">
<title>s10&#45;&gt;s10</title>
<path fill="none" stroke="black" d="M182.3,-98.11C192.24,-99.11 201.2,-96.94 201.2,-91.6 201.2,-88.51 198.2,-86.48 193.76,-85.51"/>
<polygon fill="black" stroke="black" points="193.93,-82.02 183.81,-85.14 193.67,-89.01 193.93,-82.02"/>
<text xml:space="preserve" text-anchor="middle" x="209.82" y="-86.55" font-family="Times,serif" font-size="14.00">1/0</text>
</g>
</g>
</svg>
